<svg xmlns="http://www.w3.org/2000/svg" xml:space="preserve" viewBox="0 0 508 508"><path d="M425.6 6H390v192c0 9.6-5.6 20-15.6 20H70c-10 0-20-10-20-20V6H22.4C14.4 6 6 10.4 6 18v467.6c0 7.6 8.8 16.4 16.4 16.4H50V268c0-1.2.8-2 2-2h404c1.2 0 2 .8 2 2v234h32c7.6 0 12-8.4 12-16.4V82.8z" style="fill:#2884a9"/><path d="M54 266h400v236H54z" style="fill:#73badd"/><path d="M54 6v192c0 7.6 8.4 16 16 16h304.4c7.6 0 11.6-8.4 11.6-16V6z" style="fill:#e8e3e3"/><path d="M282 38h72v144h-72z" style="fill:#2884a9"/><path d="M278 184v2h2c-1.2 0-2-.8-2-2" style="fill:#c99"/><path d="M490 508H22.4C11.2 508 0 496.8 0 485.6V18C0 6.8 11.6 0 22.4 0h404c1.2 0 2 .4 2.8 1.2l77.6 78c.8.8 1.2 1.6 1.2 2.8v404c0 10.8-6.8 22-18 22M22.4 8C15.6 8 8 12 8 18v467.6C8 492 16 500 22.4 500H490c6 0 10-7.6 10-14.4v-402L424.8 8z"/><path d="M456 506c-2.4 0-4-1.6-4-4V268h-18c-2.4 0-4-1.6-4-4s1.6-4 4-4h22c2.4 0 4 1.6 4 4v238c0 2.4-1.6 4-4 4m-404 0c-2.4 0-4-1.6-4-4V264c0-2.4 1.6-4 4-4h350c2.4 0 4 1.6 4 4s-1.6 4-4 4H56v234c0 2.4-1.6 4-4 4m322.4-286H70c-10.8 0-22-11.2-22-22V6c0-2.4 1.6-4 4-4s4 1.6 4 4v192c0 6.8 7.6 14 14 14h304.4c6 0 9.6-7.2 9.6-14V6c0-2.4 1.6-4 4-4s4 1.6 4 4v192c0 10.4-6 22-17.6 22"/><path d="M158.4 220c-11.2 0-22.4-11.2-22.4-22V6c0-2.4 1.6-4 4-4s4 1.6 4 4v192c0 6.4 8 14 14.4 14 2.4 0 4 1.6 4 4s-1.6 4-4 4M356 188h-76c-2.4 0-4-1.6-4-4V36c0-2.4 1.6-4 4-4h38c2.4 0 4 1.6 4 4s-1.6 4-4 4h-34v140h68V40h-2c-2.4 0-4-1.6-4-4s1.6-4 4-4h6c2.4 0 4 1.6 4 4v148c0 2.4-1.6 4-4 4m54 136H102c-2.4 0-4-1.6-4-4s1.6-4 4-4h308c2.4 0 4 1.6 4 4s-1.6 4-4 4m0 64H102c-2.4 0-4-1.6-4-4s1.6-4 4-4h308c2.4 0 4 1.6 4 4s-1.6 4-4 4m0 64H102c-2.4 0-4-1.6-4-4s1.6-4 4-4h308c2.4 0 4 1.6 4 4s-1.6 4-4 4"/></svg>